<mxfile host="65bd71144e">
    <diagram name="1 oldal" id="FHJcb7PVJSKBYZxrPA9h">
        <mxGraphModel dx="288" dy="445" grid="1" gridSize="10" guides="1" tooltips="1" connect="1" arrows="1" fold="1" page="1" pageScale="1" pageWidth="827" pageHeight="1169" math="0" shadow="0">
            <root>
                <mxCell id="0"/>
                <mxCell id="1" parent="0"/>
                <mxCell id="1MkhtOs3YFIBmmsrTA4M-30" value="" style="rounded=1;whiteSpace=wrap;html=1;fillColor=#B6D2F2;strokeColor=#6c8ebf;" parent="1" vertex="1">
                    <mxGeometry x="190" y="10" width="480" height="640" as="geometry"/>
                </mxCell>
                <mxCell id="1MkhtOs3YFIBmmsrTA4M-1" value="Frontend" style="rounded=1;whiteSpace=wrap;html=1;fillColor=#D6C1A1;strokeColor=#d79b00;" parent="1" vertex="1">
                    <mxGeometry x="30" y="340" width="120" height="60" as="geometry"/>
                </mxCell>
                <mxCell id="1MkhtOs3YFIBmmsrTA4M-2" value="ApiGateway" style="rounded=1;whiteSpace=wrap;html=1;fillColor=#1ba1e2;strokeColor=#006EAF;fontColor=#ffffff;" parent="1" vertex="1">
                    <mxGeometry x="230" y="340" width="120" height="60" as="geometry"/>
                </mxCell>
                <mxCell id="1MkhtOs3YFIBmmsrTA4M-3" value="DatabaseService" style="rounded=1;whiteSpace=wrap;html=1;fillColor=#1ba1e2;strokeColor=#006EAF;fontColor=#ffffff;" parent="1" vertex="1">
                    <mxGeometry x="430" y="340" width="120" height="60" as="geometry"/>
                </mxCell>
                <mxCell id="1MkhtOs3YFIBmmsrTA4M-4" value="MQTTService" style="rounded=1;whiteSpace=wrap;html=1;fillColor=#1ba1e2;strokeColor=#006EAF;fontColor=#ffffff;" parent="1" vertex="1">
                    <mxGeometry x="430" y="460" width="120" height="60" as="geometry"/>
                </mxCell>
                <mxCell id="1MkhtOs3YFIBmmsrTA4M-5" value="" style="endArrow=classic;startArrow=classic;html=1;rounded=0;entryX=1;entryY=0.5;entryDx=0;entryDy=0;exitX=0;exitY=0.5;exitDx=0;exitDy=0;" parent="1" source="1MkhtOs3YFIBmmsrTA4M-2" target="1MkhtOs3YFIBmmsrTA4M-1" edge="1">
                    <mxGeometry width="50" height="50" relative="1" as="geometry">
                        <mxPoint x="340" y="420" as="sourcePoint"/>
                        <mxPoint x="440" y="380" as="targetPoint"/>
                    </mxGeometry>
                </mxCell>
                <mxCell id="1MkhtOs3YFIBmmsrTA4M-6" value="REST API" style="text;html=1;strokeColor=none;fillColor=none;align=center;verticalAlign=middle;whiteSpace=wrap;rounded=0;" parent="1" vertex="1">
                    <mxGeometry x="160" y="370" width="60" height="30" as="geometry"/>
                </mxCell>
                <mxCell id="1MkhtOs3YFIBmmsrTA4M-8" value="" style="endArrow=classic;startArrow=classic;html=1;rounded=0;exitX=1;exitY=0.5;exitDx=0;exitDy=0;entryX=0;entryY=0.5;entryDx=0;entryDy=0;" parent="1" source="1MkhtOs3YFIBmmsrTA4M-2" target="1MkhtOs3YFIBmmsrTA4M-3" edge="1">
                    <mxGeometry width="50" height="50" relative="1" as="geometry">
                        <mxPoint x="390" y="430" as="sourcePoint"/>
                        <mxPoint x="440" y="380" as="targetPoint"/>
                    </mxGeometry>
                </mxCell>
                <mxCell id="1MkhtOs3YFIBmmsrTA4M-11" value="gRPC" style="text;html=1;strokeColor=none;fillColor=none;align=center;verticalAlign=middle;whiteSpace=wrap;rounded=0;" parent="1" vertex="1">
                    <mxGeometry x="360" y="370" width="60" height="30" as="geometry"/>
                </mxCell>
                <mxCell id="1MkhtOs3YFIBmmsrTA4M-12" value="" style="endArrow=classic;startArrow=classic;html=1;rounded=0;exitX=0.5;exitY=0;exitDx=0;exitDy=0;entryX=0.5;entryY=1;entryDx=0;entryDy=0;" parent="1" source="1MkhtOs3YFIBmmsrTA4M-4" target="1MkhtOs3YFIBmmsrTA4M-3" edge="1">
                    <mxGeometry width="50" height="50" relative="1" as="geometry">
                        <mxPoint x="390" y="430" as="sourcePoint"/>
                        <mxPoint x="440" y="380" as="targetPoint"/>
                    </mxGeometry>
                </mxCell>
                <mxCell id="1MkhtOs3YFIBmmsrTA4M-13" value="gRPC" style="text;html=1;strokeColor=none;fillColor=none;align=center;verticalAlign=middle;whiteSpace=wrap;rounded=0;" parent="1" vertex="1">
                    <mxGeometry x="440" y="420" width="60" height="30" as="geometry"/>
                </mxCell>
                <mxCell id="1MkhtOs3YFIBmmsrTA4M-14" value="&lt;div&gt;Website&lt;/div&gt;" style="text;html=1;strokeColor=none;fillColor=none;align=center;verticalAlign=middle;whiteSpace=wrap;rounded=0;" parent="1" vertex="1">
                    <mxGeometry x="60" y="310" width="60" height="30" as="geometry"/>
                </mxCell>
                <mxCell id="1MkhtOs3YFIBmmsrTA4M-15" value="Authentication and authorization" style="text;html=1;strokeColor=none;fillColor=none;align=center;verticalAlign=middle;whiteSpace=wrap;rounded=0;" parent="1" vertex="1">
                    <mxGeometry x="260" y="300" width="60" height="30" as="geometry"/>
                </mxCell>
                <mxCell id="1MkhtOs3YFIBmmsrTA4M-16" value="Data storage and management" style="text;html=1;strokeColor=none;fillColor=none;align=center;verticalAlign=middle;whiteSpace=wrap;rounded=0;" parent="1" vertex="1">
                    <mxGeometry x="435" y="310" width="110" height="30" as="geometry"/>
                </mxCell>
                <mxCell id="1MkhtOs3YFIBmmsrTA4M-20" value="zigbee2mqtt" style="rounded=1;whiteSpace=wrap;html=1;fillColor=#1ba1e2;strokeColor=#006EAF;fontColor=#ffffff;" parent="1" vertex="1">
                    <mxGeometry x="330" y="570" width="120" height="60" as="geometry"/>
                </mxCell>
                <mxCell id="1MkhtOs3YFIBmmsrTA4M-21" value="" style="endArrow=classic;startArrow=classic;html=1;rounded=0;exitX=0.5;exitY=0;exitDx=0;exitDy=0;entryX=0.25;entryY=1;entryDx=0;entryDy=0;" parent="1" source="1MkhtOs3YFIBmmsrTA4M-20" target="1MkhtOs3YFIBmmsrTA4M-4" edge="1">
                    <mxGeometry width="50" height="50" relative="1" as="geometry">
                        <mxPoint x="390" y="520" as="sourcePoint"/>
                        <mxPoint x="440" y="470" as="targetPoint"/>
                    </mxGeometry>
                </mxCell>
                <mxCell id="1MkhtOs3YFIBmmsrTA4M-22" value="Zigbee device" style="ellipse;whiteSpace=wrap;html=1;fillColor=#d5e8d4;strokeColor=#82b366;" parent="1" vertex="1">
                    <mxGeometry x="330" y="700" width="120" height="80" as="geometry"/>
                </mxCell>
                <mxCell id="1MkhtOs3YFIBmmsrTA4M-23" value="MQTT device" style="ellipse;whiteSpace=wrap;html=1;fillColor=#d5e8d4;strokeColor=#82b366;" parent="1" vertex="1">
                    <mxGeometry x="520" y="700" width="120" height="80" as="geometry"/>
                </mxCell>
                <mxCell id="1MkhtOs3YFIBmmsrTA4M-24" value="MQTT" style="text;html=1;strokeColor=none;fillColor=none;align=center;verticalAlign=middle;whiteSpace=wrap;rounded=0;" parent="1" vertex="1">
                    <mxGeometry x="370" y="530" width="60" height="30" as="geometry"/>
                </mxCell>
                <mxCell id="1MkhtOs3YFIBmmsrTA4M-25" value="" style="endArrow=classic;startArrow=classic;html=1;rounded=0;exitX=0.5;exitY=0;exitDx=0;exitDy=0;entryX=0.5;entryY=1;entryDx=0;entryDy=0;" parent="1" source="1MkhtOs3YFIBmmsrTA4M-22" target="1MkhtOs3YFIBmmsrTA4M-20" edge="1">
                    <mxGeometry width="50" height="50" relative="1" as="geometry">
                        <mxPoint x="390" y="520" as="sourcePoint"/>
                        <mxPoint x="440" y="470" as="targetPoint"/>
                    </mxGeometry>
                </mxCell>
                <mxCell id="1MkhtOs3YFIBmmsrTA4M-26" value="Zigbee" style="text;html=1;strokeColor=none;fillColor=none;align=center;verticalAlign=middle;whiteSpace=wrap;rounded=0;" parent="1" vertex="1">
                    <mxGeometry x="340" y="650" width="60" height="30" as="geometry"/>
                </mxCell>
                <mxCell id="1MkhtOs3YFIBmmsrTA4M-27" value="" style="endArrow=classic;startArrow=classic;html=1;rounded=0;entryX=0.75;entryY=1;entryDx=0;entryDy=0;exitX=0.5;exitY=0;exitDx=0;exitDy=0;" parent="1" source="1MkhtOs3YFIBmmsrTA4M-23" target="1MkhtOs3YFIBmmsrTA4M-4" edge="1">
                    <mxGeometry width="50" height="50" relative="1" as="geometry">
                        <mxPoint x="390" y="520" as="sourcePoint"/>
                        <mxPoint x="440" y="470" as="targetPoint"/>
                    </mxGeometry>
                </mxCell>
                <mxCell id="1MkhtOs3YFIBmmsrTA4M-28" value="MQTT" style="text;html=1;strokeColor=none;fillColor=none;align=center;verticalAlign=middle;whiteSpace=wrap;rounded=0;" parent="1" vertex="1">
                    <mxGeometry x="520" y="650" width="60" height="30" as="geometry"/>
                </mxCell>
                <mxCell id="1MkhtOs3YFIBmmsrTA4M-29" value="Conversion of&amp;nbsp; Zigbee data to MQTT" style="text;html=1;strokeColor=none;fillColor=none;align=center;verticalAlign=middle;whiteSpace=wrap;rounded=0;" parent="1" vertex="1">
                    <mxGeometry x="230" y="585" width="110" height="30" as="geometry"/>
                </mxCell>
                <mxCell id="1MkhtOs3YFIBmmsrTA4M-31" value="Backend" style="text;html=1;strokeColor=none;fillColor=none;align=center;verticalAlign=middle;whiteSpace=wrap;rounded=0;fontStyle=1;fontSize=20;" parent="1" vertex="1">
                    <mxGeometry x="400" y="20" width="60" height="30" as="geometry"/>
                </mxCell>
                <mxCell id="2" value="SpotifyService" style="rounded=1;whiteSpace=wrap;html=1;fillColor=#1ba1e2;strokeColor=#006EAF;fontColor=#ffffff;" parent="1" vertex="1">
                    <mxGeometry x="430" y="220" width="120" height="60" as="geometry"/>
                </mxCell>
                <mxCell id="5" value="" style="endArrow=classic;startArrow=classic;html=1;rounded=0;exitX=1;exitY=0;exitDx=0;exitDy=0;entryX=0;entryY=0.5;entryDx=0;entryDy=0;" parent="1" source="1MkhtOs3YFIBmmsrTA4M-2" target="2" edge="1">
                    <mxGeometry width="50" height="50" relative="1" as="geometry">
                        <mxPoint x="500" y="470" as="sourcePoint"/>
                        <mxPoint x="500" y="410" as="targetPoint"/>
                    </mxGeometry>
                </mxCell>
                <mxCell id="6" value="gRPC" style="text;html=1;strokeColor=none;fillColor=none;align=center;verticalAlign=middle;whiteSpace=wrap;rounded=0;" parent="1" vertex="1">
                    <mxGeometry x="380" y="290" width="60" height="30" as="geometry"/>
                </mxCell>
                <mxCell id="7" value="Spotify playback using spotifyd" style="text;html=1;strokeColor=none;fillColor=none;align=center;verticalAlign=middle;whiteSpace=wrap;rounded=0;" parent="1" vertex="1">
                    <mxGeometry x="440" y="190" width="100" height="30" as="geometry"/>
                </mxCell>
                <mxCell id="8" value="SpeakerService" style="rounded=1;whiteSpace=wrap;html=1;fillColor=#1ba1e2;strokeColor=#006EAF;fontColor=#ffffff;" parent="1" vertex="1">
                    <mxGeometry x="430" y="100" width="120" height="60" as="geometry"/>
                </mxCell>
                <mxCell id="9" value="" style="endArrow=classic;startArrow=classic;html=1;rounded=0;exitX=1;exitY=0;exitDx=0;exitDy=0;entryX=0;entryY=0.5;entryDx=0;entryDy=0;" parent="1" source="1MkhtOs3YFIBmmsrTA4M-2" target="8" edge="1">
                    <mxGeometry width="50" height="50" relative="1" as="geometry">
                        <mxPoint x="360" y="350" as="sourcePoint"/>
                        <mxPoint x="440" y="260" as="targetPoint"/>
                    </mxGeometry>
                </mxCell>
                <mxCell id="10" value="Bluetooth speaker management" style="text;html=1;strokeColor=none;fillColor=none;align=center;verticalAlign=middle;whiteSpace=wrap;rounded=0;" parent="1" vertex="1">
                    <mxGeometry x="440" y="70" width="100" height="30" as="geometry"/>
                </mxCell>
                <mxCell id="11" value="gRPC" style="text;html=1;strokeColor=none;fillColor=none;align=center;verticalAlign=middle;whiteSpace=wrap;rounded=0;" parent="1" vertex="1">
                    <mxGeometry x="340" y="205" width="60" height="30" as="geometry"/>
                </mxCell>
                <mxCell id="12" value="&lt;span style=&quot;&quot;&gt;Data reception and standardization&lt;/span&gt;" style="text;html=1;strokeColor=none;fillColor=none;align=center;verticalAlign=middle;whiteSpace=wrap;rounded=0;" parent="1" vertex="1">
                    <mxGeometry x="550" y="475" width="110" height="30" as="geometry"/>
                </mxCell>
                <mxCell id="14" value="Bluetooth speaker" style="ellipse;whiteSpace=wrap;html=1;fillColor=#d5e8d4;strokeColor=#82b366;" parent="1" vertex="1">
                    <mxGeometry x="720" y="90" width="120" height="80" as="geometry"/>
                </mxCell>
                <mxCell id="15" value="" style="endArrow=classic;startArrow=classic;html=1;rounded=0;exitX=1;exitY=0.5;exitDx=0;exitDy=0;entryX=0;entryY=0.5;entryDx=0;entryDy=0;" parent="1" source="8" target="14" edge="1">
                    <mxGeometry width="50" height="50" relative="1" as="geometry">
                        <mxPoint x="360" y="350" as="sourcePoint"/>
                        <mxPoint x="440" y="140" as="targetPoint"/>
                    </mxGeometry>
                </mxCell>
                <mxCell id="16" value="Bluetooth" style="text;html=1;strokeColor=none;fillColor=none;align=center;verticalAlign=middle;whiteSpace=wrap;rounded=0;" parent="1" vertex="1">
                    <mxGeometry x="620" y="100" width="60" height="30" as="geometry"/>
                </mxCell>
                <mxCell id="17" value="Google &lt;br&gt;OAuth 2.0" style="ellipse;shape=cloud;whiteSpace=wrap;html=1;fillColor=#D6C1A1;" parent="1" vertex="1">
                    <mxGeometry x="30" y="440" width="120" height="80" as="geometry"/>
                </mxCell>
                <mxCell id="18" value="" style="endArrow=none;dashed=1;html=1;dashPattern=1 3;strokeWidth=2;exitX=0.875;exitY=0.5;exitDx=0;exitDy=0;exitPerimeter=0;entryX=0.5;entryY=1;entryDx=0;entryDy=0;" parent="1" source="17" target="1MkhtOs3YFIBmmsrTA4M-2" edge="1">
                    <mxGeometry width="50" height="50" relative="1" as="geometry">
                        <mxPoint x="390" y="440" as="sourcePoint"/>
                        <mxPoint x="440" y="390" as="targetPoint"/>
                        <Array as="points">
                            <mxPoint x="290" y="480"/>
                        </Array>
                    </mxGeometry>
                </mxCell>
                <mxCell id="19" value="Google Auth" style="text;html=1;strokeColor=none;fillColor=none;align=center;verticalAlign=middle;whiteSpace=wrap;rounded=0;" parent="1" vertex="1">
                    <mxGeometry x="210" y="450" width="70" height="30" as="geometry"/>
                </mxCell>
                <mxCell id="20" value="Spotify&lt;br&gt;OAuth 2.0" style="ellipse;shape=cloud;whiteSpace=wrap;html=1;fillColor=#D6C1A1;" parent="1" vertex="1">
                    <mxGeometry x="720" y="205" width="120" height="80" as="geometry"/>
                </mxCell>
                <mxCell id="23" value="" style="endArrow=none;dashed=1;html=1;dashPattern=1 3;strokeWidth=2;entryX=0.16;entryY=0.55;entryDx=0;entryDy=0;entryPerimeter=0;exitX=1;exitY=0.5;exitDx=0;exitDy=0;" parent="1" source="2" target="20" edge="1">
                    <mxGeometry width="50" height="50" relative="1" as="geometry">
                        <mxPoint x="390" y="330" as="sourcePoint"/>
                        <mxPoint x="440" y="280" as="targetPoint"/>
                    </mxGeometry>
                </mxCell>
                <mxCell id="24" value="Automatic Spotify Auth" style="text;html=1;strokeColor=none;fillColor=none;align=center;verticalAlign=middle;whiteSpace=wrap;rounded=0;" parent="1" vertex="1">
                    <mxGeometry x="580" y="220" width="130" height="30" as="geometry"/>
                </mxCell>
            </root>
        </mxGraphModel>
    </diagram>
</mxfile>